# Alias OBJ Model File
# Exported from SketchUp, (c) 2000-2006 Google, Inc.
# File units = inches

mtllib post_telephone.mtl

g Mesh1 Group1 Power_Pole1 Model

usemtl _WarmGray8_1
v 92.7662 206.563 -276.487
vt 0 -1.06581e-014
vn 0 1 2.27212e-013
v 99.1502 206.563 -276.487
vt 4 -1.06581e-014
v 99.1502 206.563 -330.552
vt 4 33.875
v 92.7662 206.563 -330.552
vt 0 33.875
f 1/1/1 2/2/1 3/3/1 4/4/1 

vt -4 0.625
vn 0 -8.59373e-014 1
vt 0 0.625
v 92.7662 204.232 -276.487
vt 0 3
v 99.1502 204.232 -276.487
vt -4 3
f 2/5/2 1/6/2 5/7/2 6/8/2 

vt -3 0
vn -1 0 0
vt -0.625 -1.06581e-014
vt -0.625 33.875
v 92.7662 204.232 -330.552
vt -3 33.875
f 5/9/3 1/10/3 4/11/3 7/12/3 

vt 0 0.625
vn 0 8.59373e-014 -1
vt 4 0.625
v 99.1502 204.232 -330.552
vt 4 3
vt 0 3
f 4/13/4 3/14/4 8/15/4 7/16/4 

vt 0.625 -1.06581e-014
vn 1 0 0
vt 3 0
vt 3 33.875
vt 0.625 33.875
f 2/17/5 6/18/5 8/19/5 3/20/5 

vt -4 0
vn 0 -1 -2.27212e-013
vt 0 0
vt 0 33.875
vt -4 33.875
f 6/21/6 5/22/6 7/23/6 8/24/6 

g Mesh2 G_24FtPole1 Power_Pole1 Model

v 100.608 282.684 -272.633
vt 9 6
vn 0 1 0
v 99.9669 282.684 -275.027
vt 8.59808 7.5
v 98.2144 282.684 -276.78
vt 7.5 8.59808
v 95.8204 282.684 -277.421
vt 6 9
v 93.4264 282.684 -276.78
vt 4.5 8.59808
v 91.6738 282.684 -275.027
vt 3.40192 7.5
v 91.0324 282.684 -272.633
vt 3 6
v 91.6738 282.684 -270.239
vt 3.40192 4.5
v 93.4264 282.684 -268.487
vt 4.5 3.40192
v 95.8204 282.684 -267.845
vt 6 3
v 98.2144 282.684 -268.487
vt 7.5 3.40192
v 99.9669 282.684 -270.239
vt 8.59808 4.5
f 9/25/7 10/26/7 11/27/7 12/28/7 13/29/7 14/30/7 15/31/7 16/32/7 17/33/7 18/34/7 19/35/7 20/36/7 

usemtl _Dark_Brown_
v 105.396 0 -272.633
vt 2.68973 -0.132245
vn 0.999979 0.00640612 -1.43678e-016
v 104.113 0 -277.421
vt 5.79555 -0.132245
vn 0.866008 0.00640612 -0.49999
vt 5.0191 287.882
vt 3.46618 287.882
f 21/37/8 22/38/9 10/39/9 9/40/8 

vt -1.55291 -0.143683
v 100.608 0 -280.926
vt 1.55291 -0.143683
vn 0.49999 0.00640612 -0.866008
vt 0.776457 287.871
vt -0.776457 287.871
f 22/41/9 23/42/10 11/43/10 10/44/9 

v 95.8204 0 -282.209
vt -2.68973 -0.132245
vn 0 0.00640612 -0.999979
vt -3.46618 287.882
vt -5.0191 287.882
vt -5.79555 -0.132245
f 24/45/11 12/46/11 11/47/10 23/48/10 

v 91.0324 0 -280.926
vt -5.79555 -0.100996
vn -0.49999 0.00640612 -0.866008
vt -6.57201 287.914
vt -8.12493 287.914
vt -8.90138 -0.100996
f 25/49/12 13/50/12 12/51/11 24/52/11 

vt -10.0382 -0.0583103
v 87.5273 0 -277.421
vt -6.93237 -0.0583103
vn -0.866008 0.00640612 -0.49999
vt -7.70882 287.956
vt -9.26174 287.956
f 25/53/12 26/54/13 14/55/13 13/56/12 

vt -6.57201 287.999
vn -0.999979 0.00640612 -5.45975e-016
vt -8.12493 287.999
vt -8.90138 -0.0156242
v 86.2444 0 -272.633
vt -5.79555 -0.0156242
f 15/57/14 14/58/13 26/59/13 27/60/14 

vt -3.46618 288.03
vn -0.866008 0.00640612 0.49999
vt -5.0191 288.03
vt -5.79555 0.0156242
v 87.5273 0 -267.845
vt -2.68973 0.0156242
f 16/61/15 15/62/14 27/63/14 28/64/15 

vt 0.776457 288.042
vn -0.49999 0.00640612 0.866008
vt -0.776457 288.042
vt -1.55291 0.0270619
v 91.0324 0 -264.34
vt 1.55291 0.0270619
f 17/65/16 16/66/15 28/67/15 29/68/16 

v 95.8204 0 -263.057
vt 5.79555 0.0156242
vn -2.5862e-016 0.00640612 0.999979
vt 5.0191 288.03
vt 3.46618 288.03
vt 2.68973 0.0156242
f 30/69/17 18/70/17 17/71/16 29/72/16 

v 100.608 0 -264.34
vt 8.90138 -0.0156242
vn 0.49999 0.00640612 0.866008
vt 8.12493 287.999
vt 6.57201 287.999
vt 5.79555 -0.0156242
f 31/73/18 19/74/18 18/75/17 30/76/17 

v 104.113 0 -267.845
vt 10.0382 -0.0583103
vn 0.866008 0.00640612 0.49999
vt 9.26174 287.956
vt 7.70882 287.956
vt 6.93237 -0.0583103
f 32/77/19 20/78/19 19/79/18 31/80/18 

vt 5.79555 -0.100996
vt 8.90138 -0.100996
vt 8.12493 287.914
vt 6.57201 287.914
f 32/81/19 21/82/8 9/83/8 20/84/19 

g Mesh3 Power_Pole1 Model

usemtl _WarmGray8_1
v 92.7662 253.677 -220.029
vt 32.6039 258.448
v 92.7662 256.008 -220.029
vt 32.6039 260.823
v 92.7662 256.008 -330.552
vt -36.6461 260.823
v 92.7662 253.677 -330.552
vt -36.6461 258.448
f 33/85/3 34/86/3 35/87/3 36/88/3 

v 99.1502 256.008 -220.029
vt 1.73131 260.823
vn 0 -4.5431e-014 1
vt -2.26869 260.823
vt -2.26869 258.448
v 99.1502 253.677 -220.029
vt 1.73131 258.448
f 37/89/20 34/90/20 33/91/20 38/92/20 

vt -2.26869 -32.6039
vn 0 1 1.20116e-013
vt 1.73131 -32.6039
v 99.1502 256.008 -330.552
vt 1.73131 36.6461
vt -2.26869 36.6461
f 34/93/21 37/94/21 39/95/21 35/96/21 

vt -32.6039 260.823
vt -32.6039 258.448
v 99.1502 253.677 -330.552
vt 36.6461 258.448
vt 36.6461 260.823
f 37/97/5 38/98/5 40/99/5 39/100/5 

vt -1.73131 -32.6039
vn 0 -1 -1.20116e-013
vt 2.26869 -32.6039
vt 2.26869 36.6461
vt -1.73131 36.6461
f 38/101/22 33/102/22 36/103/22 40/104/22 

vt 2.26869 260.823
vn 0 4.5431e-014 -1
vt -1.73131 260.823
vt -1.73131 258.448
vt 2.26869 258.448
f 35/105/23 39/106/23 40/107/23 36/108/23 

g Mesh4 Power_Pole1 Model

v 92.7662 267.885 -220.273
vt -2.26869 4.40975
vn 0 0.976676 0.214718
v 99.1502 267.885 -220.273
vt 1.73131 4.40975
v 99.1502 276.992 -329.8
vt 1.73131 73.6598
v 92.7662 276.992 -329.8
vt -2.26869 73.6598
f 41/109/24 42/110/24 43/111/24 44/112/24 

vt 1.73131 274.81
vn 0 -0.0828653 0.996561
vt -2.26869 274.81
v 92.7662 265.575 -220.781
vt -2.26869 272.435
v 99.1502 265.575 -220.781
vt 1.73131 272.435
f 42/113/25 41/114/25 45/115/25 46/116/25 

vt 32.1326 270.57
vt 32.4508 272.923
vt -36.1748 282.202
v 92.7662 274.682 -330.307
vt -36.493 279.848
f 45/117/3 41/118/3 44/119/3 47/120/3 

vt 2.26869 274.81
vn 0 0.0828653 -0.996561
vt -1.73131 274.81
v 99.1502 274.682 -330.307
vt -1.73131 272.435
vt 2.26869 272.435
f 44/121/26 43/122/26 48/123/26 47/124/26 

vt -32.4508 272.923
vt -32.1326 270.57
vt 36.493 279.848
vt 36.1748 282.202
f 42/125/5 46/126/5 48/127/5 43/128/5 

vt -1.73131 4.40975
vn 0 -0.976676 -0.214718
vt 2.26869 4.40975
vt 2.26869 73.6598
vt -1.73131 73.6598
f 46/129/27 45/130/27 47/131/27 48/132/27 

g Mesh5 Power_Pole1 Model

v 98.7979 180.211 -277.601
vt 1.51037 183.579
vn -4.69808e-005 -0.00320285 0.999995
v 95.4065 180.23 -277.601
vt -0.614539 183.599
v 95.3741 178.021 -277.62
vt -0.634836 181.349
v 98.7655 178.002 -277.62
vt 1.49008 181.329
f 49/133/28 50/134/28 51/135/28 52/136/28 

vt 1.54552 124.843
vn 0.00832195 0.567336 0.823444
v 99.1502 204.232 -321.363
vt 2.04337 161.593
v 95.7589 204.251 -321.363
vt -0.0814302 161.621
vt -0.579287 124.871
f 49/137/29 53/138/29 54/139/29 50/140/29 

v 99.1502 204.232 -325.682
vt 33.5946 208.08
vn 0.999985 -0.00554789 -1.13692e-015
vt 30.8885 208.08
vt 3.46912 183.606
vt 3.48084 181.356
f 55/141/30 53/142/30 49/143/30 52/144/30 

vt 30.8885 0.14573
vn 0.0146669 0.999892 2.04906e-013
vt 33.5946 0.14573
v 95.7589 204.251 -325.682
vt 33.5946 2.27073
vt 30.8885 2.27073
f 53/145/31 55/146/31 56/147/31 54/148/31 

vt -2.07269 163.229
vn -0.0083546 -0.569562 -0.821906
vt -1.52554 122.971
vt 0.599259 123
vt 0.0521122 163.258
f 55/149/32 52/150/32 51/151/32 56/152/32 

vt -30.8885 208.08
vn -0.999985 0.00554789 1.13692e-015
vt -33.5946 208.08
vt -3.48084 181.356
vt -3.46912 183.606
f 54/153/33 56/154/33 51/155/33 50/156/33 

g Mesh6 Group2 Power_Pole2 Model

v 758.001 206.563 -271.082
v 764.385 206.563 -271.082
v 764.385 206.563 -325.146
v 758.001 206.563 -325.146
f 57/1/1 58/2/1 59/3/1 60/4/1 

v 758.001 204.232 -271.082
v 764.385 204.232 -271.082
f 58/5/2 57/6/2 61/7/2 62/8/2 

v 758.001 204.232 -325.146
f 61/9/3 57/10/3 60/11/3 63/12/3 

v 764.385 204.232 -325.146
f 60/13/4 59/14/4 64/15/4 63/16/4 

f 58/17/5 62/18/5 64/19/5 59/20/5 

f 62/21/6 61/22/6 63/23/6 64/24/6 

g Mesh7 G_24FtPole2 Power_Pole2 Model

v 765.843 282.684 -267.228
v 765.202 282.684 -269.622
v 763.449 282.684 -271.374
v 761.055 282.684 -272.016
v 758.661 282.684 -271.374
v 756.909 282.684 -269.622
v 756.267 282.684 -267.228
v 756.909 282.684 -264.834
v 758.661 282.684 -263.081
v 761.055 282.684 -262.44
v 763.449 282.684 -263.081
v 765.202 282.684 -264.834
f 65/25/7 66/26/7 67/27/7 68/28/7 69/29/7 70/30/7 71/31/7 72/32/7 73/33/7 74/34/7 75/35/7 76/36/7 

usemtl _Dark_Brown_
v 770.631 0 -267.228
v 769.348 0 -272.016
f 77/37/8 78/38/9 66/39/9 65/40/8 

v 765.843 0 -275.521
f 78/41/9 79/42/10 67/43/10 66/44/9 

v 761.055 0 -276.804
f 80/45/11 68/46/11 67/47/10 79/48/10 

v 756.267 0 -275.521
f 81/49/12 69/50/12 68/51/11 80/52/11 

v 752.762 0 -272.016
f 81/53/12 82/54/13 70/55/13 69/56/12 

v 751.479 0 -267.228
f 71/57/14 70/58/13 82/59/13 83/60/14 

v 752.762 0 -262.44
f 72/61/15 71/62/14 83/63/14 84/64/15 

v 756.267 0 -258.934
f 73/65/16 72/66/15 84/67/15 85/68/16 

v 761.055 0 -257.652
f 86/69/17 74/70/17 73/71/16 85/72/16 

v 765.843 0 -258.934
f 87/73/18 75/74/18 74/75/17 86/76/17 

v 769.348 0 -262.44
f 88/77/19 76/78/19 75/79/18 87/80/18 

f 88/81/19 77/82/8 65/83/8 76/84/19 

g Mesh8 Power_Pole2 Model

usemtl _WarmGray8_1
v 758.001 253.677 -214.623
v 758.001 256.008 -214.623
v 758.001 256.008 -325.146
v 758.001 253.677 -325.146
f 89/85/3 90/86/3 91/87/3 92/88/3 

v 764.385 256.008 -214.623
v 764.385 253.677 -214.623
f 93/89/20 90/90/20 89/91/20 94/92/20 

v 764.385 256.008 -325.146
f 90/93/21 93/94/21 95/95/21 91/96/21 

v 764.385 253.677 -325.146
f 93/97/5 94/98/5 96/99/5 95/100/5 

f 94/101/22 89/102/22 92/103/22 96/104/22 

f 91/105/23 95/106/23 96/107/23 92/108/23 

g Mesh9 Power_Pole2 Model

v 758.001 267.885 -214.867
v 764.385 267.885 -214.867
v 764.385 276.992 -324.394
v 758.001 276.992 -324.394
f 97/109/24 98/110/24 99/111/24 100/112/24 

v 758.001 265.575 -215.375
v 764.385 265.575 -215.375
f 98/113/25 97/114/25 101/115/25 102/116/25 

v 758.001 274.682 -324.902
f 101/117/3 97/118/3 100/119/3 103/120/3 

v 764.385 274.682 -324.902
f 100/121/26 99/122/26 104/123/26 103/124/26 

f 98/125/5 102/126/5 104/127/5 99/128/5 

f 102/129/27 101/130/27 103/131/27 104/132/27 

g Mesh10 Power_Pole2 Model

v 764.033 180.211 -272.196
v 760.641 180.23 -272.196
v 760.609 178.021 -272.214
v 764 178.002 -272.214
f 105/133/28 106/134/28 107/135/28 108/136/28 

v 764.385 204.232 -315.957
v 760.994 204.251 -315.957
f 105/137/29 109/138/29 110/139/29 106/140/29 

v 764.385 204.232 -320.276
f 111/141/30 109/142/30 105/143/30 108/144/30 

v 760.994 204.251 -320.276
f 109/145/31 111/146/31 112/147/31 110/148/31 

f 111/149/32 108/150/32 107/151/32 112/152/32 

f 110/153/33 112/154/33 107/155/33 106/156/33 

g Mesh11 Group3 Power_Pole3 Model

v 1461.3 206.563 -271.634
v 1467.68 206.563 -271.634
v 1467.68 206.563 -325.699
v 1461.3 206.563 -325.699
f 113/1/1 114/2/1 115/3/1 116/4/1 

v 1461.3 204.232 -271.634
v 1467.68 204.232 -271.634
f 114/5/2 113/6/2 117/7/2 118/8/2 

v 1461.3 204.232 -325.699
f 117/9/3 113/10/3 116/11/3 119/12/3 

v 1467.68 204.232 -325.699
f 116/13/4 115/14/4 120/15/4 119/16/4 

f 114/17/5 118/18/5 120/19/5 115/20/5 

f 118/21/6 117/22/6 119/23/6 120/24/6 

g Mesh12 G_24FtPole3 Power_Pole3 Model

v 1469.14 282.684 -267.78
v 1468.5 282.684 -270.174
v 1466.75 282.684 -271.927
v 1464.35 282.684 -272.568
v 1461.96 282.684 -271.927
v 1460.21 282.684 -270.174
v 1459.56 282.684 -267.78
v 1460.21 282.684 -265.386
v 1461.96 282.684 -263.634
v 1464.35 282.684 -262.992
v 1466.75 282.684 -263.634
v 1468.5 282.684 -265.386
f 121/25/7 122/26/7 123/27/7 124/28/7 125/29/7 126/30/7 127/31/7 128/32/7 129/33/7 130/34/7 131/35/7 132/36/7 

usemtl _Dark_Brown_
v 1473.93 0 -267.78
v 1472.65 0 -272.568
f 133/37/8 134/38/9 122/39/9 121/40/8 

v 1469.14 0 -276.073
f 134/41/9 135/42/10 123/43/10 122/44/9 

v 1464.35 0 -277.356
f 136/45/11 124/46/11 123/47/10 135/48/10 

v 1459.56 0 -276.073
f 137/49/12 125/50/12 124/51/11 136/52/11 

v 1456.06 0 -272.568
f 137/53/12 138/54/13 126/55/13 125/56/12 

v 1454.78 0 -267.78
f 127/57/14 126/58/13 138/59/13 139/60/14 

v 1456.06 0 -262.992
f 128/61/15 127/62/14 139/63/14 140/64/15 

v 1459.56 0 -259.487
f 129/65/16 128/66/15 140/67/15 141/68/16 

v 1464.35 0 -258.204
f 142/69/17 130/70/17 129/71/16 141/72/16 

v 1469.14 0 -259.487
f 143/73/18 131/74/18 130/75/17 142/76/17 

v 1472.65 0 -262.992
f 144/77/19 132/78/19 131/79/18 143/80/18 

f 144/81/19 133/82/8 121/83/8 132/84/19 

g Mesh13 Power_Pole3 Model

usemtl _WarmGray8_1
v 1461.3 253.677 -215.176
v 1461.3 256.008 -215.176
v 1461.3 256.008 -325.699
v 1461.3 253.677 -325.699
f 145/85/3 146/86/3 147/87/3 148/88/3 

v 1467.68 256.008 -215.176
v 1467.68 253.677 -215.176
f 149/89/20 146/90/20 145/91/20 150/92/20 

v 1467.68 256.008 -325.699
f 146/93/21 149/94/21 151/95/21 147/96/21 

v 1467.68 253.677 -325.699
f 149/97/5 150/98/5 152/99/5 151/100/5 

f 150/101/22 145/102/22 148/103/22 152/104/22 

f 147/105/23 151/106/23 152/107/23 148/108/23 

g Mesh14 Power_Pole3 Model

v 1461.3 267.885 -215.42
v 1467.68 267.885 -215.42
v 1467.68 276.992 -324.947
v 1461.3 276.992 -324.947
f 153/109/24 154/110/24 155/111/24 156/112/24 

v 1461.3 265.575 -215.928
v 1467.68 265.575 -215.928
f 154/113/25 153/114/25 157/115/25 158/116/25 

v 1461.3 274.682 -325.454
f 157/117/3 153/118/3 156/119/3 159/120/3 

v 1467.68 274.682 -325.454
f 156/121/26 155/122/26 160/123/26 159/124/26 

f 154/125/5 158/126/5 160/127/5 155/128/5 

f 158/129/27 157/130/27 159/131/27 160/132/27 

g Mesh15 Power_Pole3 Model

v 1467.33 180.211 -272.748
v 1463.94 180.23 -272.748
v 1463.91 178.021 -272.767
v 1467.3 178.002 -272.767
f 161/133/28 162/134/28 163/135/28 164/136/28 

v 1467.68 204.232 -316.51
v 1464.29 204.251 -316.51
f 161/137/29 165/138/29 166/139/29 162/140/29 

v 1467.68 204.232 -320.829
f 167/141/30 165/142/30 161/143/30 164/144/30 

v 1464.29 204.251 -320.829
f 165/145/31 167/146/31 168/147/31 166/148/31 

f 167/149/32 164/150/32 163/151/32 168/152/32 

f 166/153/33 168/154/33 163/155/33 162/156/33 

g Mesh16 Group4 Power_Pole4 Model

v -573.061 206.563 -277.149
v -566.677 206.563 -277.149
v -566.677 206.563 -331.213
v -573.061 206.563 -331.213
f 169/1/1 170/2/1 171/3/1 172/4/1 

v -573.061 204.232 -277.149
v -566.677 204.232 -277.149
f 170/5/2 169/6/2 173/7/2 174/8/2 

v -573.061 204.232 -331.213
f 173/9/3 169/10/3 172/11/3 175/12/3 

v -566.677 204.232 -331.213
f 172/13/4 171/14/4 176/15/4 175/16/4 

f 170/17/5 174/18/5 176/19/5 171/20/5 

f 174/21/6 173/22/6 175/23/6 176/24/6 

g Mesh17 G_24FtPole4 Power_Pole4 Model

v -565.219 282.684 -273.295
v -565.861 282.684 -275.689
v -567.613 282.684 -277.441
v -570.007 282.684 -278.083
v -572.401 282.684 -277.441
v -574.154 282.684 -275.689
v -574.795 282.684 -273.295
v -574.154 282.684 -270.901
v -572.401 282.684 -269.148
v -570.007 282.684 -268.507
v -567.613 282.684 -269.148
v -565.861 282.684 -270.901
f 177/25/7 178/26/7 179/27/7 180/28/7 181/29/7 182/30/7 183/31/7 184/32/7 185/33/7 186/34/7 187/35/7 188/36/7 

usemtl _Dark_Brown_
v -560.431 0 -273.295
v -561.714 0 -278.083
f 189/37/8 190/38/9 178/39/9 177/40/8 

v -565.219 0 -281.588
f 190/41/9 191/42/10 179/43/10 178/44/9 

v -570.007 0 -282.871
f 192/45/11 180/46/11 179/47/10 191/48/10 

v -574.795 0 -281.588
f 193/49/12 181/50/12 180/51/11 192/52/11 

v -578.3 0 -278.083
f 193/53/12 194/54/13 182/55/13 181/56/12 

v -579.583 0 -273.295
f 183/57/14 182/58/13 194/59/13 195/60/14 

v -578.3 0 -268.507
f 184/61/15 183/62/14 195/63/14 196/64/15 

v -574.795 0 -265.002
f 185/65/16 184/66/15 196/67/15 197/68/16 

v -570.007 0 -263.719
f 198/69/17 186/70/17 185/71/16 197/72/16 

v -565.219 0 -265.002
f 199/73/18 187/74/18 186/75/17 198/76/17 

v -561.714 0 -268.507
f 200/77/19 188/78/19 187/79/18 199/80/18 

f 200/81/19 189/82/8 177/83/8 188/84/19 

g Mesh18 Power_Pole4 Model

usemtl _WarmGray8_1
v -573.061 253.677 -220.69
v -573.061 256.008 -220.69
v -573.061 256.008 -331.213
v -573.061 253.677 -331.213
f 201/85/3 202/86/3 203/87/3 204/88/3 

v -566.677 256.008 -220.69
v -566.677 253.677 -220.69
f 205/89/20 202/90/20 201/91/20 206/92/20 

v -566.677 256.008 -331.213
f 202/93/21 205/94/21 207/95/21 203/96/21 

v -566.677 253.677 -331.213
f 205/97/5 206/98/5 208/99/5 207/100/5 

f 206/101/22 201/102/22 204/103/22 208/104/22 

f 203/105/23 207/106/23 208/107/23 204/108/23 

g Mesh19 Power_Pole4 Model

v -573.061 267.885 -220.934
v -566.677 267.885 -220.934
v -566.677 276.992 -330.461
v -573.061 276.992 -330.461
f 209/109/24 210/110/24 211/111/24 212/112/24 

v -573.061 265.575 -221.442
v -566.677 265.575 -221.442
f 210/113/25 209/114/25 213/115/25 214/116/25 

v -573.061 274.682 -330.969
f 213/117/3 209/118/3 212/119/3 215/120/3 

v -566.677 274.682 -330.969
f 212/121/26 211/122/26 216/123/26 215/124/26 

f 210/125/5 214/126/5 216/127/5 211/128/5 

f 214/129/27 213/130/27 215/131/27 216/132/27 

g Mesh20 Power_Pole4 Model

v -567.03 180.211 -278.263
v -570.421 180.23 -278.263
v -570.453 178.021 -278.281
v -567.062 178.002 -278.281
f 217/133/28 218/134/28 219/135/28 220/136/28 

v -566.677 204.232 -322.024
v -570.069 204.251 -322.024
f 217/137/29 221/138/29 222/139/29 218/140/29 

v -566.677 204.232 -326.343
f 223/141/30 221/142/30 217/143/30 220/144/30 

v -570.069 204.251 -326.343
f 221/145/31 223/146/31 224/147/31 222/148/31 

f 223/149/32 220/150/32 219/151/32 224/152/32 

f 222/153/33 224/154/33 219/155/33 218/156/33 

